<svg xmlns="http://www.w3.org/2000/svg" width="1200" height="630" viewBox="0 0 1200 630" role="img" aria-labelledby="title desc">
  <title id="title">Microsoft 365 Message Center Archive</title>
  <desc id="desc">Public archive for Microsoft 365 Message Center and Roadmap updates.</desc>
  <defs>
    <linearGradient id="background" x1="0" y1="0" x2="1" y2="1">
      <stop offset="0" stop-color="#f8fafc"/>
      <stop offset="0.58" stop-color="#eef6ff"/>
      <stop offset="1" stop-color="#ecfdf5"/>
    </linearGradient>
    <linearGradient id="panel" x1="0" y1="0" x2="1" y2="1">
      <stop offset="0" stop-color="#ffffff"/>
      <stop offset="1" stop-color="#f8fafc"/>
    </linearGradient>
    <filter id="shadow" x="-20%" y="-20%" width="140%" height="140%">
      <feDropShadow dx="0" dy="18" stdDeviation="26" flood-color="#0f172a" flood-opacity="0.14"/>
    </filter>
  </defs>

  <rect width="1200" height="630" fill="url(#background)"/>
  <path d="M0 498C168 426 302 452 430 392C566 328 622 188 784 204C948 220 1036 352 1200 300V630H0Z" fill="#dbeafe" opacity="0.48"/>
  <path d="M0 552C166 492 308 518 468 462C626 406 704 302 868 318C1018 332 1112 420 1200 400V630H0Z" fill="#ccfbf1" opacity="0.52"/>

  <g filter="url(#shadow)">
    <rect x="84" y="70" width="1032" height="490" rx="26" fill="url(#panel)" stroke="#d7e3f2"/>
  </g>

  <g transform="translate(124 116)">
    <rect x="0" y="0" width="76" height="76" rx="18" fill="#2563eb"/>
    <rect x="21" y="20" width="34" height="7" rx="3.5" fill="#ffffff"/>
    <rect x="21" y="35" width="34" height="7" rx="3.5" fill="#ffffff" opacity="0.86"/>
    <rect x="21" y="50" width="24" height="7" rx="3.5" fill="#ffffff" opacity="0.72"/>

    <text x="98" y="28" fill="#2563eb" font-family="Segoe UI, Arial, sans-serif" font-size="22" font-weight="700" letter-spacing="2">MESSAGE.CENGIZYILMAZ.NET</text>
    <text x="98" y="66" fill="#475569" font-family="Segoe UI, Arial, sans-serif" font-size="24" font-weight="600">Microsoft 365 technical change archive</text>
  </g>

  <text x="124" y="288" fill="#0f172a" font-family="Segoe UI, Arial, sans-serif" font-size="70" font-weight="800">Microsoft 365</text>
  <text x="124" y="366" fill="#0f172a" font-family="Segoe UI, Arial, sans-serif" font-size="70" font-weight="800">Message Center Archive</text>
  <text x="128" y="428" fill="#475569" font-family="Segoe UI, Arial, sans-serif" font-size="29" font-weight="500">Message Center and Roadmap updates with canonical static URLs</text>

  <g transform="translate(124 470)">
    <rect x="0" y="0" width="190" height="42" rx="12" fill="#eff6ff" stroke="#bfdbfe"/>
    <text x="22" y="28" fill="#1d4ed8" font-family="Segoe UI, Arial, sans-serif" font-size="18" font-weight="700">/message/mc...</text>

    <rect x="210" y="0" width="184" height="42" rx="12" fill="#f0fdfa" stroke="#99f6e4"/>
    <text x="232" y="28" fill="#0f766e" font-family="Segoe UI, Arial, sans-serif" font-size="18" font-weight="700">/roadmap/rm...</text>

    <rect x="414" y="0" width="148" height="42" rx="12" fill="#fffbeb" stroke="#fde68a"/>
    <text x="436" y="28" fill="#92400e" font-family="Segoe UI, Arial, sans-serif" font-size="18" font-weight="700">Static export</text>
  </g>

  <g transform="translate(770 144)">
    <rect x="0" y="0" width="286" height="318" rx="20" fill="#0f172a"/>
    <rect x="26" y="28" width="70" height="24" rx="12" fill="#2563eb"/>
    <text x="42" y="46" fill="#ffffff" font-family="Segoe UI, Arial, sans-serif" font-size="13" font-weight="700">MC</text>
    <rect x="108" y="32" width="132" height="12" rx="6" fill="#cbd5e1"/>
    <rect x="26" y="80" width="232" height="18" rx="9" fill="#f8fafc"/>
    <rect x="26" y="112" width="198" height="12" rx="6" fill="#94a3b8"/>
    <rect x="26" y="138" width="224" height="12" rx="6" fill="#64748b"/>

    <rect x="26" y="190" width="70" height="24" rx="12" fill="#0d9488"/>
    <text x="42" y="208" fill="#ffffff" font-family="Segoe UI, Arial, sans-serif" font-size="13" font-weight="700">RM</text>
    <rect x="108" y="194" width="126" height="12" rx="6" fill="#cbd5e1"/>
    <rect x="26" y="242" width="210" height="18" rx="9" fill="#f8fafc"/>
    <rect x="26" y="274" width="178" height="12" rx="6" fill="#94a3b8"/>
  </g>
</svg>
